<?xml version="1.0" encoding="iso-8859-1"?>
<!-- Generator: Adobe Illustrator 19.0.0, SVG Export Plug-In . SVG Version: 6.00 Build 0)  -->
<svg version="1.1" id="Layer_1" xmlns="http://www.w3.org/2000/svg" xmlns:xlink="http://www.w3.org/1999/xlink" x="0px" y="0px"
	 viewBox="0 0 512 512" style="enable-background:new 0 0 512 512;" xml:space="preserve">
<g>
	<path style="fill:#C1C1C1;" d="M106.244,140.246c-2.539,0-5.044-1.168-6.661-3.37c-2.7-3.676-1.909-8.845,1.766-11.545
		l124.338-91.302c3.675-2.7,8.844-1.907,11.544,1.766c2.7,3.676,1.909,8.845-1.766,11.545l-124.338,91.302
		C109.654,139.724,107.941,140.246,106.244,140.246z"/>
	<path style="fill:#C1C1C1;" d="M232.772,481.162c-1.698,0-3.41-0.522-4.882-1.603l-119.967-88.053
		c-3.675-2.7-4.467-7.868-1.766-11.545c2.701-3.675,7.869-4.466,11.544-1.766l119.967,88.053c3.675,2.7,4.467,7.868,1.766,11.545
		C237.815,479.994,235.31,481.162,232.772,481.162z"/>
	<path style="fill:#C1C1C1;" d="M81.24,336.464c-4.561,0-8.258-3.696-8.258-8.258V183.819c0-4.562,3.697-8.258,8.258-8.258
		c4.561,0,8.258,3.696,8.258,8.258v144.387C89.499,332.768,85.801,336.464,81.24,336.464z"/>
	<path style="fill:#C1C1C1;" d="M288.137,474.983c-2.539,0-5.044-1.168-6.661-3.37c-2.7-3.676-1.909-8.845,1.766-11.545
		l120.582-89.331c3.675-2.699,8.844-1.908,11.544,1.766c2.7,3.676,1.909,8.845-1.766,11.545l-120.582,89.331
		C291.546,474.462,289.834,474.983,288.137,474.983z"/>
	<path style="fill:#C1C1C1;" d="M399.183,135.406c-1.698,0-3.41-0.522-4.882-1.603L283.242,51.93
		c-3.675-2.7-4.467-7.868-1.766-11.545c2.701-3.674,7.869-4.467,11.544-1.766l111.059,81.873c3.675,2.7,4.467,7.868,1.766,11.545
		C404.226,134.238,401.722,135.406,399.183,135.406z"/>
	<path style="fill:#C1C1C1;" d="M430.76,336.435c-4.561,0-8.258-3.696-8.258-8.258V183.819c0-4.562,3.697-8.258,8.258-8.258
		s8.258,3.696,8.258,8.258v144.357C439.018,332.738,435.321,336.435,430.76,336.435z"/>
	<path style="fill:#C1C1C1;" d="M256,447.826c-4.561,0-8.258-3.696-8.258-8.258V313.954c0-4.562,3.697-8.258,8.258-8.258
		c4.561,0,8.258,3.696,8.258,8.258v125.615C264.258,444.129,260.561,447.826,256,447.826z"/>
	<path style="fill:#C1C1C1;" d="M256,198.599c-4.561,0-8.258-3.696-8.258-8.258V158.17c0-4.562,3.697-8.258,8.258-8.258
		c4.561,0,8.258,3.696,8.258,8.258v32.171C264.258,194.903,260.561,198.599,256,198.599z"/>
	<path style="fill:#C1C1C1;" d="M256,128.346c-4.561,0-8.258-3.696-8.258-8.258V72.43c0-4.562,3.697-8.258,8.258-8.258
		c4.561,0,8.258,3.696,8.258,8.258v47.658C264.258,124.649,260.561,128.346,256,128.346z"/>
	<path style="fill:#C1C1C1;" d="M116.445,346.533c-2.802,0-5.534-1.426-7.084-4.002c-2.351-3.908-1.089-8.981,2.82-11.333
		l87.244-52.488c3.909-2.351,8.981-1.089,11.333,2.82c2.351,3.908,1.089,8.981-2.82,11.333l-87.244,52.488
		C119.362,346.151,117.894,346.533,116.445,346.533z"/>
	<path style="fill:#C1C1C1;" d="M310.898,230.819c-2.855,0-5.632-1.482-7.161-4.133c-2.278-3.951-0.923-9.001,3.028-11.279
		l84.672-48.836c3.951-2.278,9-0.924,11.279,3.028c2.278,3.951,0.923,9.001-3.028,11.279l-84.672,48.836
		C313.717,230.463,312.299,230.819,310.898,230.819z"/>
	<path style="fill:#C1C1C1;" d="M395.555,346.533c-1.45,0-2.919-0.382-4.252-1.185l-87.377-52.62
		c-3.907-2.353-5.167-7.428-2.814-11.334c2.352-3.909,7.426-5.168,11.334-2.814l87.377,52.62c3.907,2.353,5.167,7.428,2.814,11.334
		C401.087,345.109,398.355,346.533,395.555,346.533z"/>
	<path style="fill:#C1C1C1;" d="M201.507,230.819c-1.395,0-2.808-0.352-4.104-1.097l-85.078-48.836
		c-3.955-2.272-5.321-7.318-3.051-11.273c2.27-3.955,7.318-5.323,11.273-3.051l85.078,48.836c3.955,2.272,5.321,7.318,3.051,11.273
		C207.15,229.329,204.368,230.819,201.507,230.819z"/>
</g>
<ellipse style="fill:#FF7258;" cx="255.999" cy="252.145" rx="62.045" ry="61.803"/>
<g>
	<path style="fill:#F95D48;" d="M193.956,252.146c0-5.836,0.815-11.473,2.323-16.824c7.355,25.963,31.303,44.99,59.722,44.99
		s52.367-19.026,59.722-44.99c1.508,5.351,2.323,10.989,2.323,16.824c0,34.133-27.78,61.803-62.045,61.803
		S193.956,286.279,193.956,252.146z"/>
	<ellipse style="fill:#F95D48;" cx="255.999" cy="41.721" rx="41.885" ry="41.721"/>
	<ellipse style="fill:#F95D48;" cx="255.999" cy="470.278" rx="41.885" ry="41.721"/>
	<path style="fill:#F95D48;" d="M453.178,189.084c-19.948,11.664-45.611,5.01-57.32-14.861
		c-11.709-19.871-5.03-45.436,14.918-57.099s45.611-5.01,57.32,14.861C479.805,151.855,473.126,177.42,453.178,189.084z"/>
	<path style="fill:#F95D48;" d="M101.224,394.875c-19.948,11.664-45.611,5.01-57.32-14.861s-5.03-45.436,14.918-57.099
		c19.948-11.664,45.611-5.01,57.32,14.861C127.851,357.646,121.172,383.21,101.224,394.875z"/>
	<path style="fill:#F95D48;" d="M58.823,189.084c19.948,11.664,45.611,5.01,57.32-14.861s5.03-45.436-14.918-57.099
		s-45.611-5.01-57.32,14.861S38.875,177.42,58.823,189.084z"/>
	<path style="fill:#F95D48;" d="M410.777,394.875c19.948,11.664,45.611,5.01,57.32-14.861s5.03-45.436-14.918-57.099
		c-19.948-11.664-45.611-5.01-57.32,14.861C384.149,357.646,390.828,383.21,410.777,394.875z"/>
</g>
<g>
	<path style="fill:#DB4237;" d="M297.878,41.722c0,23.045-18.751,41.72-41.874,41.72c-23.133,0-41.885-18.674-41.885-41.72
		c0-4.481,0.716-8.798,2.026-12.849c5.439,16.758,21.229,28.881,39.859,28.881s34.408-12.123,39.848-28.881
		C297.163,32.924,297.878,37.24,297.878,41.722z"/>
	<path style="fill:#DB4237;" d="M297.878,470.28c0,23.034-18.751,41.72-41.874,41.72c-23.133,0-41.885-18.685-41.885-41.72
		c0-4.481,0.716-8.798,2.026-12.849c5.439,16.758,21.229,28.87,39.859,28.87c18.619,0,34.408-12.112,39.848-28.87
		C297.163,461.483,297.878,465.799,297.878,470.28z"/>
	<path style="fill:#DB4237;" d="M453.173,189.089c-19.94,11.66-45.606,5.01-57.311-14.864c-6.298-10.691-7.278-23.023-3.733-33.957
		c0.925,2.83,2.158,5.604,3.733,8.269c11.704,19.863,37.37,26.525,57.311,14.853c9.227-5.384,15.613-13.752,18.652-23.145
		C477.771,158.457,470.449,178.981,453.173,189.089z"/>
	<path style="fill:#DB4237;" d="M101.227,394.879c-19.951,11.66-45.617,5.01-57.322-14.864c-6.298-10.691-7.278-23.023-3.733-33.957
		c0.925,2.83,2.158,5.604,3.733,8.269c11.704,19.863,37.37,26.525,57.322,14.853c9.216-5.384,15.602-13.752,18.652-23.155
		C125.825,364.247,118.492,384.771,101.227,394.879z"/>
	<path style="fill:#DB4237;" d="M116.147,174.225c-11.715,19.874-37.381,26.525-57.322,14.864
		c-17.276-10.108-24.598-30.632-18.652-48.843c3.039,9.392,9.425,17.76,18.652,23.145c19.94,11.671,45.606,5.01,57.322-14.853
		c1.575-2.665,2.808-5.428,3.733-8.258C123.414,151.201,122.445,163.533,116.147,174.225z"/>
	<path style="fill:#DB4237;" d="M468.093,380.015c-11.704,19.874-37.37,26.525-57.311,14.864
		c-17.276-10.108-24.598-30.632-18.652-48.844c3.039,9.392,9.425,17.76,18.652,23.144c19.94,11.671,45.606,5.01,57.311-14.853
		c1.575-2.665,2.808-5.439,3.733-8.269C475.371,356.991,474.391,369.323,468.093,380.015z"/>
</g>
<g>
</g>
<g>
</g>
<g>
</g>
<g>
</g>
<g>
</g>
<g>
</g>
<g>
</g>
<g>
</g>
<g>
</g>
<g>
</g>
<g>
</g>
<g>
</g>
<g>
</g>
<g>
</g>
<g>
</g>
</svg>
