<?xml version="1.0" encoding="iso-8859-1"?>
<!-- Generator: Adobe Illustrator 19.0.0, SVG Export Plug-In . SVG Version: 6.00 Build 0)  -->
<svg version="1.1" id="Layer_1" xmlns="http://www.w3.org/2000/svg" xmlns:xlink="http://www.w3.org/1999/xlink" x="0px" y="0px"
	 viewBox="0 0 512.088 512.088" style="enable-background:new 0 0 512.088 512.088;" xml:space="preserve">
<rect y="383.12" width="512" height="72.72"/>
<g style="opacity:0.2;">
	<rect x="72.744" y="383.12" style="fill:#FFFFFF;" width="439.344" height="35.624"/>
</g>
<rect y="383.12" width="72.72" height="72.72"/>
<rect x="0.04" y="56.248" style="fill:#E21B1B;" width="511.96" height="326.912"/>
<polygon style="fill:#FFFFFF;" points="55.44,420.192 26.2,403.312 26.2,437.08 "/>
<rect x="107.696" y="414.752" style="fill:#999999;" width="314.72" height="8"/>
<circle style="fill:#E21B1B;" cx="200.824" cy="419.856" r="11.776"/>
<g>
	<rect x="453.248" y="402.736" style="fill:#999999;" width="8" height="32"/>
	<rect x="473.224" y="402.736" style="fill:#999999;" width="8" height="32"/>
</g>
<g>
	<path style="fill:#FFFFFF;" d="M336.744,322.976h-161.44c-16.92,0-30.696-13.776-30.696-30.704v-143.08
		c0-16.92,13.776-30.696,30.696-30.696h161.44c16.92,0,30.696,13.776,30.696,30.696v143.08
		C367.44,309.2,353.664,322.976,336.744,322.976z M175.304,122.504c-14.72,0-26.696,11.976-26.696,26.696v143.08
		c0,14.728,11.976,26.704,26.696,26.704h161.44c14.72,0,26.696-11.976,26.696-26.704V149.192c0-14.72-11.976-26.696-26.696-26.696
		h-161.44V122.504z"/>
	<polygon style="fill:#FFFFFF;" points="303.88,219.512 222.848,172.728 222.848,266.296 	"/>
</g>
<g>
</g>
<g>
</g>
<g>
</g>
<g>
</g>
<g>
</g>
<g>
</g>
<g>
</g>
<g>
</g>
<g>
</g>
<g>
</g>
<g>
</g>
<g>
</g>
<g>
</g>
<g>
</g>
<g>
</g>
</svg>
